<svg version="1" xmlns="http://www.w3.org/2000/svg" width="1365.333" height="1365.333" viewBox="0 0 1024.000000 1024.000000"><path d="M418.5 57.1c-1.6.6-3.9 1.2-5 1.5-1.1.3-2.4.6-3 .8-.5.2-2.3.6-4 1.1-48.4 12.7-52.3 14.1-57.6 22-3.7 5.5-4.9 9.8-4.5 17 .8 13.6 11.3 24.2 24.9 25 2.7.2 6.2-.1 7.8-.5 2.7-.8 2.9-.7 3.9 3.3.6 2.3 1.4 5.1 1.7 6.2.4 1.1.8 2.4.9 3 .2 1.1 3.6 13.8 8.8 33.1 2 7.3 3.6 13.6 3.6 14.1s-6 3.3-13.2 6.2c-21.9 8.9-45.4 21.3-64.6 34.3-9.5 6.4-25.7 18.7-29.9 22.7-1.2 1.1-1.7 1-3.5-.5-5.5-5-42.8-42.7-42.8-43.4 0-.4.9-1.5 1.9-2.4 3.7-3.4 6.4-10.7 6.5-17.6.2-15.3-11.5-27-27-27-10 0-13.4 2.4-39.1 28.2-27.1 27.2-28.4 29.2-27.9 40.6.3 7.9 1 10 5.9 16.4 5.4 7.1 18.3 11.1 27.5 8.6 3-.8 8.1-3.7 12.6-7.2.8-.5 8.8 6.9 23.4 21.4 12.2 12.2 22.2 22.3 22.2 22.4 0 .1-3.4 4.5-7.5 9.7-7.8 9.7-23.9 33.2-29.4 42.9-3.1 5.3-17.5 34-17.6 35-.1.3-.8 2.1-1.6 4-.9 1.9-2.8 6.8-4.3 10.7-1.5 4-3.2 7.3-3.8 7.3-.5 0-11.2-2.8-23.6-6.1-12.5-3.4-23.1-6.2-23.7-6.4-1-.2-8.7-2.2-11.8-3.1-.9-.3-1.5-.9-1.2-1.3.2-.5.7-3.1.9-6 1.3-15.3-9.8-27.9-25.2-28.7-10.1-.5-18.8 3.8-23.8 11.7C72.3 361 56 420.9 56 427.3c0 23.5 29.3 35.4 45.8 18.6 2.9-3 7.2-10.6 7.2-12.9 0-1.3-1.9-1.6 15.5 3.1 13.7 3.7 31.5 8.4 42.3 11.2 3.1.8 4.1 1.4 3.7 2.6-.2.9-.7 3.4-1 5.6-.3 2.2-.7 4.9-.9 6-.4 2-1 7.1-2.6 22.4-.8 7.9-.6 56.7.3 61.1.3 1.4.8 4.9 1.1 7.9.7 6.1 2.4 17.6 3 20.7.4 1.8-.9 2.4-14.2 5.9-8.1 2.2-15.1 4-15.7 4.1-.5.1-4.1 1.1-8 2.2-5.8 1.7-11.1 3-13.5 3.5-.3 0-2.5.6-4.9 1.4-2.4.7-4.5 1.2-4.6 1.1-.1-.2-1-2.4-2-5-3.5-9.4-12.7-15.9-23.2-16.4-8.5-.4-14.3 1.7-20.2 7.5-6.1 5.9-8.6 12.8-7.8 21 .6 6 .8 6.7 3.1 15.1.9 3 4.3 15.5 7.6 27.8 3.5 12.8 7 23.8 8.4 26 8.8 13.9 29 16 41.2 4.3 5.9-5.6 9.4-17 7.4-24-.6-2-.5-3.3.3-3.9.7-.5 8.4-2.8 17.2-5.1 8.8-2.4 21.8-5.8 28.8-7.7 7.1-2 13.5-3.3 14.2-3 .7.2 1.5 1.7 1.9 3.3 1.1 4.5 8.5 21.8 15 34.8 10.7 21.5 23.2 41.4 37.3 59.1 4.4 5.4 8.2 10.4 8.6 11.1.4.7-7.7 9.6-21.4 23.2-12.2 12.2-22.4 22.1-22.7 22.1-.2 0-2.1-1.3-4.1-2.9-17.3-13.7-43.1-1.2-43.1 20.9 0 10.7 1.3 12.5 27.2 38.6 13.4 13.5 25.7 25.1 28.1 26.3 5.9 3.2 15.3 3.9 21.4 1.6 11.2-4.3 17.8-13.7 17.7-25.4 0-7-3-14.6-7.1-18.4-2-1.7-1.5-2.3 20.5-24.3l22.5-22.5 2.3 1.8c14.6 11.5 27.2 20.6 38.4 27.8 15.8 10 43.1 23.9 58 29.5 12.4 4.6 11.9 2.9 6.7 22.5-8.9 33-11.6 42.8-12 43.1-.2.3-1.5 0-2.9-.5-3.6-1.4-12.1-.5-17 1.7-19 8.7-21.1 35.1-3.8 46.6 4.4 2.9 7 3.7 57.5 17 5.4 1.4 11.8 2.6 14 2.6 9.6 0 19-5.8 23.5-14.6 2-4 2.5-6.3 2.4-12.4 0-8.4-1.9-13.2-7.3-18.6-2.9-3-10.8-7.4-13.1-7.4-1.2 0-1.7 1.8 7.9-33.6 5.9-21.7 7.9-28 9.1-27.9.8.2 3.3.6 5.5.9 2.3.4 5 .8 6 1 2.3.4 11.2 1.5 23 2.6 8.2.8 54.2.5 60.5-.4 1.9-.3 5.5-.7 8-1 2.5-.2 7.9-1 12-1.6 4.1-.7 8.2-1.3 9-1.5 1-.1 1.9 1.2 2.6 3.9.6 2.3 4.2 15.3 7.8 29.1 3.7 13.7 6.9 25.7 7.2 26.6.3 1.1-1 2-4.3 3.2-5.9 2.2-10.2 6-13.9 12.3-2.4 4.1-2.8 5.9-2.9 12.3 0 6.2.5 8.5 2.5 12.5 4.5 8.8 13.9 14.6 23.4 14.6 3.7 0 25.8-5.5 56.4-13.9 16.1-4.4 22.1-8.9 25.6-18.9 2-5.6 1.4-15.7-1.2-20.7-2.7-5.2-8.7-11-13.7-13.1-4.4-1.8-14.1-2.6-16.6-1.3-1.6.8-4.2-.3-3.9-1.7.1-.5-.4-2.7-.9-4.9-.6-2.2-4-14.9-7.6-28.2-3.6-13.3-6.5-24.6-6.5-25.1 0-.6 2.6-2 5.8-3.2 3.1-1.1 6.6-2.5 7.7-3 1.1-.5 4.5-1.9 7.5-3.1 24.4-9.9 61.6-32.6 82.8-50.6 5.2-4.5 5.3-4.5 7.4-2.7 5.6 5 42.8 42.7 42.8 43.4 0 .4-.7 1.4-1.7 2.1-.9.8-2.8 4-4.3 7.2-6.3 13.2-1 27.7 13 35.6 4.2 2.4 16.7 2.4 22 0 5.4-2.4 49.6-45.8 53.7-52.7 3.4-5.7 4.2-15 1.9-22-5.6-16.8-27.7-23.2-41.8-12.1-2 1.6-3.9 2.9-4.1 2.9-.5 0-41.3-40.6-43.6-43.3-1.1-1.5-.9-2.1 1.5-5 1.6-1.8 4.3-5 5.9-7.1 1.7-2.1 4-5 5.2-6.5 1.3-1.4 2.3-2.9 2.3-3.3 0-.4.6-1.3 1.4-2.1 1.6-1.6 15-21.8 19-28.7 5.8-10.1 17.5-34.3 22-45.8 2.7-6.7 5.2-12.2 5.5-12.2 1 0 17.6 4.3 36.1 9.3 9.1 2.5 18.4 5 20.7 5.6 3.9 1.1 4.1 1.3 3.3 3.9-1.3 4.6-.4 12.8 1.9 17.6 2.8 5.7 5.6 8.6 11.6 12.2 12.2 7.1 30 1.8 36.2-10.7 3-6.1 18.3-63.9 18.3-69.2 0-9.8-6.5-20-15.5-24.3-5.7-2.7-17.5-2.5-23.1.3-5.6 3-10.9 8.7-13 14.2-.9 2.5-1.8 4.7-1.9 4.8-.1.3-28.8-7.2-39-10.2-2.7-.7-8.9-2.4-13.7-3.6-4.8-1.2-8.6-2.5-8.4-2.8.2-.3.7-3 1-5.9.3-2.9.8-6.3 1.1-7.5.5-2.4.9-6.1 2.2-17.7 1.6-15.2.9-57-1.2-74-1.4-10.6-2.5-17.8-3-19.2-.8-2 .3-2.7 6.8-4.3 2.9-.7 12.9-3.4 22.2-5.9 9.4-2.6 17.8-4.9 18.9-5.1 1-.3 4.3-1.2 7.3-2 5.7-1.7 6.3-1.6 6.7.7 1.1 6.1 7.2 13.5 14 17.1 6.1 3.2 17.4 3 24-.3 9.7-5 15.3-15.1 14.3-25.9-.2-3.1-2.8-14.2-5.6-24.6-12.3-45.4-11.5-43-16.9-48.4-5.9-5.8-12-8.1-20.4-7.7-16.4.8-27.9 15.3-24.9 31.2l.8 4.4-4.1 1.1c-2.2.6-12.2 3.2-22.1 5.9-26.8 7.3-33.4 9-34.3 9-.5 0-2.8-4.8-5.2-10.8-5.8-14.7-16.8-37.3-24.2-49.5-6.3-10.5-19.8-30.7-22.9-34.2-3.6-4.1-11.9-14.4-11.9-14.9 0-.7 44.1-44.6 44.9-44.6.3 0 1.7 1 3.1 2.3 10.5 9.6 29.6 7.7 38.4-3.9 6.3-8.2 7.3-21.2 2.2-29.7-3.2-5.4-48-49.9-52.6-52.2-4.5-2.3-14-3.1-19.3-1.6-10.4 3-18.5 13.1-19.2 24.1-.5 7.7 1.5 13 7.9 21.4 1.1 1.5-43.1 45.9-44.8 44.9-.6-.4-4.5-3.4-8.6-6.8-24.2-19.6-56.5-38.4-86.7-50.5-7.3-2.9-13.3-5.8-13.3-6.3 0-.8 13.3-51.1 15.6-59 .3-.9 1-1.5 1.5-1.2 2.1 1.4 11.4 1.3 16.1-.1 5.9-1.8 13-7.9 16.1-13.9 5.7-11.1 1.3-27.3-9.4-34.1-3-1.9-17.1-6.5-23.9-7.9-.8-.2-3.5-.9-6-1.6-2.5-.7-4.9-1.3-5.5-1.5-.5-.1-4.6-1.2-9-2.4-4.4-1.1-8.7-2.3-9.6-2.5-.8-.2-4-1-6.9-1.9-14.4-4.3-27.8.8-34 13-3.3 6.5-3.4 17.8-.3 24 3 5.6 8.7 10.9 14.2 13 2.5.9 4.7 1.8 4.8 1.9.2 0-.8 4.1-2.1 9.1-1.3 4.9-3.6 13.4-5.1 18.9-1.5 5.5-2.8 10.7-3 11.5-1.3 5.2-5.6 20.4-6 21.1-.3.4-1.5.6-2.8.3-27.2-5.9-79.9-6.8-110.7-1.8-1.9.3-5.1.7-7 1-1.9.2-4.2.7-5.1.9-1.2.4-3-5-9.7-30.2-4.5-16.9-8-30.9-7.8-31.1.2-.2 1-.5 1.8-.6 2.7-.4 8.8-3.9 11.3-6.4 7.4-7.4 10-17.6 7-27.8-3.9-13.4-20.1-21.7-34-17.3zM532 219.5c10.3.6 12.4.8 20.5 2 2.2.3 5.8.8 8 1.1 7.3 1 35.9 8.3 46.4 11.9 94.1 32.4 165.8 110.6 189.6 206.8 1.9 7.5 3.7 15.6 4 18 .3 2.3.8 4.9 1 5.7.5 2.1 1.3 7.3 2.1 15 .3 3.6.8 7.8 1 9.5.6 4.8.6 39.6 0 44.5-.3 2.5-.8 7.2-1.1 10.5-.7 6.6-1.1 9.4-2.5 17.5-.6 3-1.3 6.8-1.5 8.5-.3 1.6-1.7 7.4-3.1 12.8-13.4 52.6-38.6 96.9-77.4 135.8-26.9 27.1-59.1 49-91.5 62.4-4.9 2.1-10.3 4.3-12 5-7.4 3.2-35 11.1-45 12.9-25.2 4.7-30.1 5.1-58 5.1-23.3 0-33.1-.6-44.5-2.5-3-.5-7.3-1.2-9.5-1.6-8-1.2-34.2-8.3-45-12.2-41.6-15-77.1-37.6-108.6-69.1-19.2-19.3-32-35.7-45.5-58.3-20.7-34.8-35.2-78.2-38.9-116.3-.3-3.3-.8-8-1.1-10.5-.6-5.2-.7-40.5 0-43.5.2-1.1.7-5.6 1.1-9.9.4-4.3.8-8.6 1-9.5.1-.9.6-3.6 1-6.1 3.6-22.2 10.6-46.8 18.5-65.5 15.3-35.9 36.3-67 63.9-94.6 47.7-47.6 102.6-74.4 173.1-84.3 1.9-.3 9.1-.8 16-1.2 6.9-.4 12.6-.7 12.7-.8.3-.2 15.4.3 25.3.9z"/><path d="M364.8 413.6c-.2.1-3 .5-6.3.8-8.4.7-19.7 3.8-27.8 7.6-29 13.4-47.9 40.7-52.6 75.5-2.1 16.6 0 40 5.1 55 11 32.2 37.9 53.2 73.3 57.2 25.6 2.9 46.9-3.1 65-18.5 3.8-3.1 7.3-6.4 7.8-7.4.9-1.3-1.1-4-10.9-14.8-6.5-7.3-12.6-14.1-13.6-15.3l-1.6-2.1-4 3.6c-16.9 15.2-41.1 15.8-55.6 1.2-5.5-5.5-9.5-13.2-12.3-23.4-1.9-7.3-2.2-10.5-1.9-22 .4-14.1.5-15.3 3.2-23.2 4-12 13.1-22.9 23.1-27.6 5-2.3 7.1-2.7 15.3-2.7 10.6.1 15.3 1.6 24 8 2.6 1.9 5.2 3.5 5.8 3.5.5 0 2.5-1.9 4.4-4.3 2-2.3 4.8-5.6 6.4-7.3 1.6-1.7 5.4-5.9 8.4-9.4s6.2-7 7-7.8c1.3-1.3.9-2-3-5.5-14-12.5-33.4-20.4-51.9-21.1-3.9-.2-7.2-.2-7.3 0zM663 418.7c-7.5 1.1-20 6.1-26.6 10.5-17.5 11.7-26.2 29.2-26.2 52.7-.1 34.6 19.2 55.3 52.8 56.6 11.7.5 24.9-4.8 33.6-13.5l4.2-4.1-.4 4.8c-1.3 15.1-6.2 28.9-12.7 35.5-6.1 6.3-11 8.3-20.2 8.2-9.5 0-16.4-2.4-24.1-8.3l-5.1-3.8-12.7 14.4c-8.9 10.1-12.5 14.9-12.1 16.1.3.9 3.3 3.8 6.8 6.3 31.9 23.9 77.3 21.2 101.1-5.9 1.7-2 3.6-4 4.1-4.6 4.7-4.9 12.1-19.5 15.4-29.9 5.9-19.1 7.4-49.4 3.6-70.2-.9-4.5-3.6-14.7-4.5-17-.5-1.1-1.8-4.2-2.9-6.8-3.3-7.7-10.6-18-17.1-24-12.2-11.3-26.2-16.8-43.5-17.1-6-.2-12.1-.1-13.5.1zm25.6 43c4.4 4.4 6.8 9.2 9.2 18.5l1.9 7.5-3.1 4.1c-5.9 7.8-12.6 11.5-20.6 11.4-13.7-.1-20.3-7.7-20.1-23 .1-7.8.8-10.6 3.7-15.7 5.8-10.1 20.3-11.6 29-2.8zM515 421.8c-1.4.2-7.4 2.7-13.5 5.7-11.6 5.7-29.4 11.5-36.2 11.8-.7 0-1.3.3-1.4.6-.1.8-.1 28.3 0 29.8.1 1 4.3 1.3 17.5 1.3h17.4l-.1 47.7-.2 47.8-18.5.1c-10.2.1-19 .2-19.7.3-.8.1-1.1 5.7-1.1 20.1v20H582.5v-19.8c.1-10.8-.3-19.9-.6-20.2-.4-.3-8-.5-16.8-.5h-16v-71V423c-.1-1.3-2.5-1.5-15.9-1.5-8.6 0-16.8.1-18.2.3z"/></svg>